<svg id="Layer_1" data-name="Layer 1" xmlns="http://www.w3.org/2000/svg" width="240.25" height="394.52" viewBox="0 0 240.25 394.52"><defs><style>.cls-1{fill:#fff;}</style></defs><path class="cls-1" d="M312,389H71.75V-5.52H312ZM256.81,109.11c-1.72-3.13-3.57-5.08-3.84-7.22-1.39-11.35-1.48-22.93-3.75-34.07C246.8,56,241.7,45.28,229.49,39.69c-13.66-6.24-27.33-10.79-42.83-10.37C160.49,30,140.11,39.69,129,64.2c-4.18,9.23-6.09,19.53-3.79,30.05a22.82,22.82,0,0,1,.18,9c-1.31,6.65-2.17,12.79,4.21,17.7,1.81,1.4,2.63,4.2,3.65,6.47,4.34,9.72,9,19.31,12.67,29.28,2,5.55,3.87,12,3.08,17.63a138.28,138.28,0,0,0,4,57.76c6.14,21.78,20.9,35.75,38.3,47.9,3.1,2.17,7.41,2.57,11.12,3.91,8.27,3,16.45,6.21,24.77,9,6.62,2.25,14,2.46,18.91,8.77,1.14,1.47,4.14,1.54,6.31,2.14,1.37.37,3.52,0,4.08.83,4.14,6,8,12.29,12.63,19.66-3.3-.41-4.72-.53-6.13-.76-8.58-1.41-17.18-1.72-25.34,1.69-2,.83-3.13,3.74-4.67,5.69,2.18,1.12,4.27,2.91,6.54,3.2,3.26.41,6.75-.84,10-.29,2,.35,5,2.54,5.22,4.15.23,2.18-1.41,5.06-3.12,6.74-1.24,1.21-3.91,1.33-5.93,1.3-17.14-.23-32.25-6.28-45.82-16.47-7-5.28-6.78-5.68-2.18-12.9a11.08,11.08,0,0,0,1.2-8.18c-.48-1.61-4.22-3.62-5.89-3.18-2.35.64-4.25,3.28-6.11,5.28-.81.87-.79,2.56-1.63,3.34-1,1-2.59,1.35-3.92,2-.39-1.38-1.26-2.82-1.09-4.13.33-2.65,1.88-5.25,1.76-7.82-.24-4.85-2.42-8.54-8.18-8.25-5.59.29-6.83,4-6.66,8.71.09,2.64.23,5.27.38,8.8-8-2.39-12.83-7.45-17-13.22q-10.43-14.42-20.57-29a6.21,6.21,0,0,1-.73-3.55c.24-7.72,1.95-8.86,9.94-11.47,3.13-1,6.18-4.68,7.51-7.88.72-1.7-2.4-7.18-3.6-7.13-3.56.18-7,2.24-10.5,3.63-.32.13-.53.64-.69,1-2.1,4.86-5.58,5.2-9.74,2.9s-8.49-4.86-14-8c2.3,8,8.06,10.25,13.53,12.1,4.64,1.57,5.84,4.22,5,8.55s-3.49,5.8-7.79,5.2c-2-.28-4.67-.53-6.12.5-3,2.14-6.75,4.77-7.62,7.92-.77,2.81,1.12,7.27,3.28,9.75,2.88,3.33,7.24,2.85,10.91.32,1.88-1.3,4-2.63,5.18-4.47,3.49-5.49,6-3.59,8.69.6,4.67,7.22,9.14,14.6,14.3,21.46,6,8.07,12.39,15.22,24.35,15.32,6.1.05,14,3,17.93,7.5,15.53,17.6,35.1,24.21,57.54,24.64,8.07.16,12.25-4.27,11.9-11.85-.28-6.12-4.7-9-12.9-8.21-2.9.26-5.79.67-8.68,1,14.12-8.72,28-2.93,42.72.39-1.3-7.94-3.52-15-5.57-22-1-3.51-2.38-7.09-2.48-10.67-.29-10,.26-20-.07-29.92a42.31,42.31,0,0,0-2.62-13.42c-2.92-7.59-6.91-14.76-10-22.29-4.79-11.69-12.56-20.44-23.33-27.06-7.37-4.53-14-10.3-19.8-14.67,4.71-11,8.7-20.46,12.89-29.89,3.73-8.39,5.92-18.42,12-24.6C249.45,128.28,252.06,118,256.81,109.11Z" transform="translate(-71.75 5.52)"/><path d="M256.81,109.11c-4.75,8.84-7.36,19.17-15.53,27.52-6.05,6.18-8.24,16.21-12,24.6-4.19,9.43-8.18,18.94-12.89,29.89,5.82,4.37,12.43,10.14,19.8,14.67,10.77,6.62,18.54,15.37,23.33,27.06,3.09,7.53,7.08,14.7,10,22.29a42.31,42.31,0,0,1,2.62,13.42c.33,10-.22,19.95.07,29.92.1,3.58,1.46,7.16,2.48,10.67,2,7.08,4.27,14.1,5.57,22-14.74-3.32-28.6-9.11-42.72-.39,2.89-.34,5.78-.75,8.68-1,8.2-.75,12.62,2.09,12.9,8.21.35,7.58-3.83,12-11.9,11.85-22.44-.43-42-7-57.54-24.64-3.93-4.46-11.83-7.45-17.93-7.5-12-.1-18.3-7.25-24.35-15.32-5.16-6.86-9.63-14.24-14.3-21.46-2.71-4.19-5.2-6.09-8.69-.6-1.18,1.84-3.3,3.17-5.18,4.47-3.67,2.53-8,3-10.91-.32-2.16-2.48-4-6.94-3.28-9.75.87-3.15,4.62-5.78,7.62-7.92,1.45-1,4.1-.78,6.12-.5,4.3.6,6.93-.84,7.79-5.2s-.35-7-5-8.55c-5.47-1.85-11.23-4.06-13.53-12.1,5.54,3.18,9.75,5.67,14,8s7.64,2,9.74-2.9c.16-.38.37-.89.69-1,3.48-1.39,6.94-3.45,10.5-3.63,1.2,0,4.32,5.43,3.6,7.13-1.33,3.2-4.38,6.85-7.51,7.88-8,2.61-9.7,3.75-9.94,11.47a6.21,6.21,0,0,0,.73,3.55q10.17,14.59,20.57,29c4.17,5.77,9,10.83,17,13.22-.15-3.53-.29-6.16-.38-8.8-.17-4.72,1.07-8.42,6.66-8.71,5.76-.29,7.94,3.4,8.18,8.25.12,2.57-1.43,5.17-1.76,7.82-.17,1.31.7,2.75,1.09,4.13,1.33-.63,2.88-1,3.92-2,.84-.78.82-2.47,1.63-3.34,1.86-2,3.76-4.64,6.11-5.28,1.67-.44,5.41,1.57,5.89,3.18a11.08,11.08,0,0,1-1.2,8.18c-4.6,7.22-4.85,7.62,2.18,12.9,13.57,10.19,28.68,16.24,45.82,16.47,2,0,4.69-.09,5.93-1.3,1.71-1.68,3.35-4.56,3.12-6.74-.17-1.61-3.19-3.8-5.22-4.15-3.2-.55-6.69.7-10,.29-2.27-.29-4.36-2.08-6.54-3.2,1.54-1.95,2.67-4.86,4.67-5.69,8.16-3.41,16.76-3.1,25.34-1.69,1.41.23,2.83.35,6.13.76-4.67-7.37-8.49-13.62-12.63-19.66-.56-.82-2.71-.46-4.08-.83-2.17-.6-5.17-.67-6.31-2.14-4.9-6.31-12.29-6.52-18.91-8.77-8.32-2.83-16.5-6.05-24.77-9-3.71-1.34-8-1.74-11.12-3.91-17.4-12.15-32.16-26.12-38.3-47.9a138.28,138.28,0,0,1-4-57.76c.79-5.65-1-12.08-3.08-17.63-3.65-10-8.33-19.56-12.67-29.28-1-2.27-1.84-5.07-3.65-6.47-6.38-4.91-5.52-11.05-4.21-17.7a22.82,22.82,0,0,0-.18-9c-2.3-10.52-.39-20.82,3.79-30C140.11,39.69,160.49,30,186.66,29.32c15.5-.42,29.17,4.13,42.83,10.37C241.7,45.28,246.8,56,249.22,67.82c2.27,11.14,2.36,22.72,3.75,34.07C253.24,104,255.09,106,256.81,109.11Zm-47.56,58.05c3.26.77,5.36,1.64,7.49,1.68s4.19-.75,6.29-1.18c-1.4-1.43-2.65-3.87-4.22-4.1-5.86-.87-11.85-.77-17.73-1.53-2.49-.33-4.8-2.12-5.89,1.89-.11.41-3,.55-4.23,0a4.06,4.06,0,0,1-1.84-3.31c.48-4.75,3.82-6.39,8.56-5.18,7.95,2,16,3.62,23.69,5.34l1.09-6.87,6.4-2.28-.55-1.64-14.59-7.21.35-2.06c3.24.36,6.47.75,9.71,1.1,1.91.2,5.3.94,5.5.45.92-2.34,1.63-5.17,1.14-7.55-.63-3-2.83-5.59-3.78-8.55-2.72-8.43-5.29-9.38-11.81-3.66-7.4,6.49-15.52,6.42-24.16,3.22s-14.24-8.93-15.69-18c-1.43-8.91-2.58-9.85-11.13-6.65-6.3,2.36-12.55,4.88-20.4,7.94l8.23,18.11c-6.56,6.56-7.26,6.67-13.05,1.28,1,7.63,7.82,5.69,12.64,8-6.45,4.43-3.87,9.14-1.57,13.95s6,9.79,6.32,14.85c.59,10.41-.71,20.92-1.18,31.39a12.44,12.44,0,0,0,.34,3.75c3.2,12,5.77,24.34,9.95,36,2.94,8.26,5.26,18.19,17.16,19.24,1.61.14,3,3.08,4.48,4.69,5.07,5.38,10.13,10.79,15.32,16.06.57.58,2.07.12,3,.5,3.88,1.65,7.69,3.47,11.56,5.15a93.71,93.71,0,0,0,9.7,4c3.88,1.2,7.92,1.89,11.52,2.72l6.57-4.16c-.55-4.23-3.05-6.09-7.64-5.37-9,1.43-14.85-5.84-22.42-8.39-.75-.26-1.2-1.64-1.64-2.57-2.07-4.36-4.26-8.66-6-13.13a45.91,45.91,0,0,1-1.75-7.25l7.36-1.65c-6.26-2.21-4.43-6.36-2.95-9,2.31-4.09,1.83-7.51-.34-11.22-1.26-2.17-2.36-4.44-3.51-6.67-2-3.89-2.78-7.76,1.63-10.47,4.15-2.55,7.5-1.15,10.23,2.71,1.65,2.33,3.27,5.34,5.62,6.35,4.66,2,6.95,4.95,7.39,9.89a9.89,9.89,0,0,0,2.06,4.39c2.65,3.75,5.46,7.38,9,12.12l7,.48c1.41,4.37,2.2,8.2,3.87,11.61,2.19,4.49,5.42,8.48,7.54,13,1.79,3.81,4.18,8.32,3.56,12.07-1.28,7.77-1,10.74,5.59,15.78.94-17.83-.52-34.8-7.61-51.53-6.06-14.32-13.66-26.69-26.49-35.61a143.27,143.27,0,0,1-13.92-10.67c-10.64-9.52-10.53-9.63-23.48-3.29-.31.15-.78-.06-.56,0l-8.33-11.62,1.27-1.17a94.71,94.71,0,0,0,8.8,4.24c6.32,2.31,16.44-3.27,19-11.14C219.62,170.14,211.56,173,209.25,167.16ZM146,92.88c.48.14.93.45,1.26.35,3.4-1,6.77-2.07,10.18-3,19-5.13,38.08-4.07,57.2-1.1a6.17,6.17,0,0,1,3.8,2.7c4.27,7.31,4.19,7.36,11.1,3.26l.91,6.85c1.89-4.13,3.05-6.69,3.9-8.55,2.7,2.88,4.59,6,7.36,7.62,5.39,3.18,8.42,1,7.53-5.22-1.49-10.51-3.29-21-5.27-31.41-1.2-6.25-6.14-9.18-11.65-7.94-9.6,2.17-17.53-1.7-25-5.92C192,41.94,177,43.2,162.41,50.73c-5.09,2.62-10.24,8.23-12,13.58C147.54,73.25,147.37,83.07,146,92.88Zm63.94,24.46c-6.52-1.37-13.5.45-16.21-6.75-.09-.24-.75-.32-1.15-.38-3.92-.58-7.84-1.14-12-1.73C189.64,118.9,199.29,126.73,209.94,117.34Zm-3.17-18.27c-1-1.31-1.21-1.94-1.67-2.2-7.18-4.26-15-2.35-22.56-2-.87,0-2.25,2-2.3,3.09-.06,1.43.6,3.55,1.66,4.19a4.66,4.66,0,0,0,4.41-.55c4.32-4.08,9.13-4.43,14.52-3C202.45,99.13,204.25,98.93,206.77,99.07ZM123.09,275.19l-.41-2.47c-2.06-.72-4.12-2-6.16-2-3.88,0-8.12,1.06-7.74,6,.13,1.74,4,4.95,5.07,4.55C117.21,280,120.05,277.33,123.09,275.19Zm105.66-18.84-1.93-.15c-.92,1.29-2.18,2.45-2.7,3.88a58.22,58.22,0,0,0-1.68,7.13c2.43-1.59,5.35-2.8,7.1-4.95C230.4,261.2,229.08,258.38,228.75,256.35Zm-54.31,55.57c1.89-3.63,3.74-5.57,3.54-7.25s-2.47-3.11-3.83-4.64c-1.25,1.38-3.59,2.81-3.52,4.12C170.73,306.2,172.47,308.16,174.44,311.92ZM228.94,124c7.12,5.16,12.24,5.1,15.36,0ZM144.65,247.15c-2.39-1.41-4-2.83-4.42-2.54a40.38,40.38,0,0,0-4.89,4.73c1.1.63,2.47,2,3.26,1.73C140.41,250.44,141.94,249,144.65,247.15Z" transform="translate(-71.75 5.52)"/><path class="cls-1" d="M209.25,167.16c2.31,5.81,10.37,3,8.34,9.27-2.54,7.87-12.66,13.45-19,11.14a94.71,94.71,0,0,1-8.8-4.24l-1.27,1.17,8.33,11.62c-.22,0,.25.19.56,0,12.95-6.34,12.84-6.23,23.48,3.29a143.27,143.27,0,0,0,13.92,10.67c12.83,8.92,20.43,21.29,26.49,35.61,7.09,16.73,8.55,33.7,7.61,51.53-6.63-5-6.87-8-5.59-15.78.62-3.75-1.77-8.26-3.56-12.07-2.12-4.51-5.35-8.5-7.54-13-1.67-3.41-2.46-7.24-3.87-11.61l-7-.48c-3.54-4.74-6.35-8.37-9-12.12a9.89,9.89,0,0,1-2.06-4.39c-.44-4.94-2.73-7.87-7.39-9.89-2.35-1-4-4-5.62-6.35-2.73-3.86-6.08-5.26-10.23-2.71-4.41,2.71-3.65,6.58-1.63,10.47,1.15,2.23,2.25,4.5,3.51,6.67,2.17,3.71,2.65,7.13.34,11.22-1.48,2.63-3.31,6.78,2.95,9l-7.36,1.65a45.91,45.91,0,0,0,1.75,7.25c1.79,4.47,4,8.77,6,13.13.44.93.89,2.31,1.64,2.57,7.57,2.55,13.4,9.82,22.42,8.39,4.59-.72,7.09,1.14,7.64,5.37l-6.57,4.16c-3.6-.83-7.64-1.52-11.52-2.72a93.71,93.71,0,0,1-9.7-4c-3.87-1.68-7.68-3.5-11.56-5.15-.92-.38-2.42.08-3-.5-5.19-5.27-10.25-10.68-15.32-16.06-1.52-1.61-2.87-4.55-4.48-4.69-11.9-1-14.22-11-17.16-19.24-4.18-11.71-6.75-24-9.95-36a12.44,12.44,0,0,1-.34-3.75c.47-10.47,1.77-21,1.18-31.39-.29-5.06-4-10-6.32-14.85s-4.88-9.52,1.57-13.95c-4.82-2.34-11.63-.4-12.64-8,5.79,5.39,6.49,5.28,13.05-1.28L143.45,109c7.85-3.06,14.1-5.58,20.4-7.94,8.55-3.2,9.7-2.26,11.13,6.65,1.45,9.09,7.16,14.86,15.69,18s16.76,3.27,24.16-3.22c6.52-5.72,9.09-4.77,11.81,3.66,1,3,3.15,5.57,3.78,8.55.49,2.38-.22,5.21-1.14,7.55-.2.49-3.59-.25-5.5-.45-3.24-.35-6.47-.74-9.71-1.1l-.35,2.06L228.31,150l.55,1.64-6.4,2.28-1.09,6.87c-7.69-1.72-15.74-3.33-23.69-5.34-4.74-1.21-8.08.43-8.56,5.18a4.06,4.06,0,0,0,1.84,3.31c1.22.56,4.12.42,4.23,0,1.09-4,3.4-2.22,5.89-1.89,5.88.76,11.87.66,17.73,1.53,1.57.23,2.82,2.67,4.22,4.1-2.1.43-4.2,1.22-6.29,1.18S212.51,167.93,209.25,167.16Zm3.42-32.53-1-1.14-17.82,8.77h14.28Z" transform="translate(-71.75 5.52)"/><path class="cls-1" d="M146,92.88c1.37-9.81,1.54-19.63,4.44-28.57,1.73-5.35,6.88-11,12-13.58C177,43.2,192,41.94,207.3,50.52c7.49,4.22,15.42,8.09,25,5.92,5.51-1.24,10.45,1.69,11.65,7.94,2,10.43,3.78,20.9,5.27,31.41.89,6.27-2.14,8.4-7.53,5.22-2.77-1.63-4.66-4.74-7.36-7.62-.85,1.86-2,4.42-3.9,8.55l-.91-6.85c-6.91,4.1-6.83,4-11.1-3.26a6.17,6.17,0,0,0-3.8-2.7c-19.12-3-38.23-4-57.2,1.1-3.41.93-6.78,2-10.18,3C146.93,93.33,146.48,93,146,92.88Zm9.77-29.68-3.4.76c.67,2.34,1.27,4.71,2.11,7,.08.2,1.77-.2,2.71-.32Q156.49,66.92,155.77,63.2Z" transform="translate(-71.75 5.52)"/><path class="cls-1" d="M209.94,117.34c-10.65,9.39-20.3,1.56-29.33-8.86,4.13.59,8,1.15,12,1.73.4.06,1.06.14,1.15.38C196.44,117.79,203.42,116,209.94,117.34Z" transform="translate(-71.75 5.52)"/><path class="cls-1" d="M206.77,99.07c-2.52-.14-4.32.06-5.94-.38-5.39-1.48-10.2-1.13-14.52,3a4.66,4.66,0,0,1-4.41.55c-1.06-.64-1.72-2.76-1.66-4.19,0-1.11,1.43-3,2.3-3.09,7.59-.39,15.38-2.3,22.56,2C205.56,97.13,205.8,97.76,206.77,99.07Z" transform="translate(-71.75 5.52)"/><path class="cls-1" d="M123.09,275.19c-3,2.14-5.88,4.8-9.24,6.08-1,.4-4.94-2.81-5.07-4.55-.38-5,3.86-6,7.74-6,2,0,4.1,1.3,6.16,2Z" transform="translate(-71.75 5.52)"/><path class="cls-1" d="M228.75,256.35c.33,2,1.65,4.85.79,5.91-1.75,2.15-4.67,3.36-7.1,4.95a58.22,58.22,0,0,1,1.68-7.13c.52-1.43,1.78-2.59,2.7-3.88Z" transform="translate(-71.75 5.52)"/><path class="cls-1" d="M174.44,311.92c-2-3.76-3.71-5.72-3.81-7.77-.07-1.31,2.27-2.74,3.52-4.12,1.36,1.53,3.63,3,3.83,4.64S176.33,308.29,174.44,311.92Z" transform="translate(-71.75 5.52)"/><path class="cls-1" d="M228.94,124H244.3C241.18,129.13,236.06,129.19,228.94,124Z" transform="translate(-71.75 5.52)"/><path class="cls-1" d="M144.65,247.15c-2.71,1.84-4.24,3.29-6.05,3.92-.79.28-2.16-1.1-3.26-1.73a40.38,40.38,0,0,1,4.89-4.73C140.63,244.32,142.26,245.74,144.65,247.15Z" transform="translate(-71.75 5.52)"/><path d="M212.67,134.63l-4.56,7.63H193.83l17.82-8.77Z" transform="translate(-71.75 5.52)"/><path d="M155.77,63.2q.72,3.72,1.42,7.42c-.94.12-2.63.52-2.71.32-.84-2.27-1.44-4.64-2.11-7Z" transform="translate(-71.75 5.52)"/></svg>