<svg id="Layer_1" data-name="Layer 1" xmlns="http://www.w3.org/2000/svg" width="65" height="39" viewBox="0 0 65 39"><defs><style>.cls-1{fill:#fefefe;}.cls-2{fill:#999696;}.cls-3{fill:#343232;}</style></defs><title>rLogo</title><path class="cls-1" d="M-15.07,35.11V-3.62c0-.24.07-.27.29-.27H49.65c.24,0,.28.05.28.28V34.8c0,.26-.08.31-.32.31ZM27.41,19.59A2.39,2.39,0,0,0,26.79,21a1,1,0,0,0,.58,1.14,1,1,0,0,0,1.1-.06c.83-.57,1.64-1.19,2.43-1.82a1.31,1.31,0,0,0,.47-1.43.18.18,0,0,0-.07-.19,1.28,1.28,0,0,0-1.67-.68l-.2.11A15.84,15.84,0,0,0,27.41,19.59Zm-5-17.83c-.1.05-.15.16-.26.21-.43.19-.85.4-1.27.6a.83.83,0,0,0-.3.26c-.35.47-.7.93-1.08,1.38s-.27.41.06.68c0,.11.1.14.19.19a1.4,1.4,0,0,0,1.86-.38c.45-.47.88-1,1.28-1.48a1.37,1.37,0,0,0,.28-1.44,1.39,1.39,0,0,0-1.3-.84,1.52,1.52,0,0,0-1,.64c-.46.52-.92,1-1.38,1.53a.65.65,0,0,0-.21.49c0,.07,0,.16.1.1a4.73,4.73,0,0,0,.9-.66A3.32,3.32,0,0,1,22,1.63s.09,0,.11-.09A.43.43,0,0,1,22.41,1.76ZM2.51,23.51a.66.66,0,0,0,.11.26A1.33,1.33,0,0,0,5,23.11c.2-1.2.43-2.4.69-3.59.61-2.81,1.39-5.58,2.08-8.38A1.46,1.46,0,0,0,7.16,9.6a1.3,1.3,0,0,0-1.56.3.84.84,0,0,0-.31.56c-.78,2.87-1.54,5.76-2.18,8.68-.26,1.23-.52,2.47-.7,3.72A.7.7,0,0,0,2.51,23.51ZM13.2,17.17a1.68,1.68,0,0,0,.93.68,2,2,0,0,0,2-.52c.16.09,0,.2,0,.3a8.31,8.31,0,0,0-.36,2.43.33.33,0,0,0,.15.32.66.66,0,0,0,.71.07,13.81,13.81,0,0,0,1.24-.72c.2-.14.4-.32.72-.19,0,0-.07.05-.11.08-.64.41-1.29.84-2,1.19-.24.12-.47.37-.78.09l-.09,0a.9.9,0,0,0,.26.73,1.7,1.7,0,0,0,1.8.68,4.55,4.55,0,0,0,1.72-.78c1-.62,1.94-1.27,2.91-1.91.17.1.1.26.08.39-.24,1.53-.44,3.07-.78,4.58-.21,1-.37,1.95-.61,2.92-.07.27.06.52,0,.78a.09.09,0,0,0,.08.08h0c.24-.05.48,0,.72-.1.52-.32,1.09-.59,1.63-.89a2.35,2.35,0,0,1,.78-.12Q23,28,21.73,28.62c-.18.1-.33.29-.59.26s-.32.08-.26.3a.59.59,0,0,0,.2.34,1.45,1.45,0,0,0,.63.57A2,2,0,0,0,23.38,30a20.77,20.77,0,0,0,2.15-1.11c1.9-1,3.73-2.16,5.66-3.12.42-.21.86-.38,1.3-.57a1.28,1.28,0,0,0,.75-1.59,1.32,1.32,0,0,0-1.52-.93,3.05,3.05,0,0,0-.74.24c-1,.43-1.94.93-2.88,1.45-1.36.76-2.7,1.56-4.08,2.28l-.08-.06c.14-.44.06-.94.42-1.3l-.05,0-.08-.06c.19-1.08.38-2.15.5-3.24a1.23,1.23,0,0,1,0-.47,2,2,0,0,0,.15-.75c0-.34.07-.69.13-1a4.36,4.36,0,0,0-.15-2.4,1.56,1.56,0,0,0-1.77-.94,5.53,5.53,0,0,0-1.69.65c-.91.52-1.78,1.1-2.64,1.69-.06.05-.14.14-.23.08s0-.15,0-.22c.18-.54.33-1.08.52-1.61a15.13,15.13,0,0,1,2.34-4.51,3.58,3.58,0,0,1,.54-.56c.39-.29.76-.16.84.3.05.3.09.61.12.91a1.71,1.71,0,0,0,1.38,1.53,1.38,1.38,0,0,0,1.42-1,8.9,8.9,0,0,0,0-1.63,4.34,4.34,0,0,0-.61-2.05,2.34,2.34,0,0,0-2.58-1.15,10,10,0,0,0-4.71,2.85A10.5,10.5,0,0,0,16.52,13a7.31,7.31,0,0,1-.6.64.12.12,0,0,1-.06-.16c.16-.34.22-.71.36-1.06A11.3,11.3,0,0,1,16.81,11c.23-.42.52-.8.75-1.22a1.37,1.37,0,0,0-.47-1.88,1.34,1.34,0,0,0-1.79.37l-1.89,1.78-.34.3a.45.45,0,0,0-.24.21l-.94.8s-.09.09-.15.05,0-.09,0-.14c.66-1.18,1.33-2.34,2.08-3.46.65-1,1.32-1.91,2-2.86a3.75,3.75,0,0,0,.68-1.85.74.74,0,0,0-.1-.58,1.78,1.78,0,0,0-1.27-1.26A3.33,3.33,0,0,0,14,1.18,24,24,0,0,0,3.27,4.3a7.76,7.76,0,0,0-1.41,1,1.52,1.52,0,0,0-.4,1.38.28.28,0,0,0,.12.18,1.31,1.31,0,0,0,1.73.62l.22-.13c.35-.22.68-.49,1-.7a21.89,21.89,0,0,1,8.66-2.75.33.33,0,0,1-.1.23c-.78,1-1.53,2.13-2.22,3.25a32.22,32.22,0,0,0-2,3.54,6.66,6.66,0,0,0-.76,2.69c0,.11-.1.26,0,.33s.18-.1.3-.11,0,0,.08,0a.81.81,0,0,0,.58-.18,16.48,16.48,0,0,0,2-1.38.46.46,0,0,1,.5-.1c-.12.21-.33.28-.49.41a16.26,16.26,0,0,1-2.8,1.87c-.33.18-.38.32-.2.68a1.3,1.3,0,0,0,1.68.75l.05,0a14.41,14.41,0,0,0,3-1.82.61.61,0,0,0,.3-.58c.13.14.29.28.16.48A2.85,2.85,0,0,0,13,15.57a.2.2,0,0,0,.06.18c.39.39.52.4,1,.06a1.54,1.54,0,0,0,.19-.17c.38-.38.77-.76,1.12-1.16a.34.34,0,0,1,.39-.16.44.44,0,0,1-.2.31,17.23,17.23,0,0,1-1.94,1.88c-.24.17-.37.15-.55,0a.14.14,0,0,0-.15,0A.79.79,0,0,0,13.2,17.17Z" transform="translate(15.07 3.89)"/><path class="cls-2" d="M15.9,21.62a.9.9,0,0,1-.26-.74.16.16,0,0,1,.09,0c.3.27.52,0,.78-.1.68-.35,1.3-.78,1.95-1.19,0,0,.09,0,.12-.08-.32-.13-.52.05-.72.19a13.81,13.81,0,0,1-1.24.72.66.66,0,0,1-.71-.07.33.33,0,0,1-.15-.32,8.31,8.31,0,0,1,.36-2.43c0-.1.15-.21,0-.3a6.52,6.52,0,0,0,.5-1.19,25.53,25.53,0,0,1,1.84-4.06c0-.05.1-.09,0-.19-.24.38-.65.58-.94.89s-.62.63-.94.94c-.05,0-.1.13-.19.08s-.08-.15-.07-.23.2-.33.21-.52a9.54,9.54,0,0,1,1.35-1.42c.09.1.13,0,.18,0a10.18,10.18,0,0,1,1.2-.87c.17-.1.18,0,.18.11h0v0l0,0c.09,0,.14-.06.2-.11a7.63,7.63,0,0,1,2.86-1.36,1.88,1.88,0,0,1,1.62.3,6,6,0,0,1,.61.52c.13.12.3.26.23.49,0,.05,0,.16-.15.09a2.85,2.85,0,0,0-1.55-.22,1.47,1.47,0,0,0-1.08.63,1.26,1.26,0,0,1-.39.34.91.91,0,0,0-.16.11A10.67,10.67,0,0,0,20,13.66a15.15,15.15,0,0,0-1.21,2.54c-.26.59-.43,1.21-.67,1.8a1.69,1.69,0,0,0-.09,1.13.22.22,0,0,0,.19.17.72.72,0,0,0,.76-.19l.22-.19a14,14,0,0,1,3-1.7A4.1,4.1,0,0,1,23.39,17a.93.93,0,0,1,.7.29,1.94,1.94,0,0,1,.49,1.54,17.2,17.2,0,0,1-.32,2.68c-.23,1.59-.45,3.18-.81,4.75-.17.78,0,1,.68.88a.61.61,0,0,0,.3-.15,19,19,0,0,1,1.9-1.13c.92-.52,1.83-1.08,2.79-1.54a11.65,11.65,0,0,1,2.5-1,.93.93,0,0,1,1,.42c.12.23.05.38-.21.42-.5.06-1,.09-1.5.1a1.17,1.17,0,0,0-.55.13,22.2,22.2,0,0,0-2.14,1c-1,.58-2.1,1.13-3.12,1.75-.67.4-1.38.73-2,1.15a13.79,13.79,0,0,1-1.33.67c-.08,0-.19.08-.15.17.12.33-.09.33-.31.35a.2.2,0,0,0-.18.06.59.59,0,0,1-.2-.34c-.08-.22,0-.33.26-.3s.4-.16.59-.26q1.29-.64,2.55-1.38a2.64,2.64,0,0,0-.78.12c-.55.3-1.1.57-1.63.89-.24.14-.49.05-.72.1a.09.09,0,0,1-.1-.06v0c0-.26-.12-.5-.05-.78.25-1,.4-1.95.62-2.92.33-1.51.52-3,.78-4.58,0-.13.09-.29-.09-.39a.45.45,0,0,0,.14-.26,2.8,2.8,0,0,0,0-1.08c0-.34-.11-.39-.45-.29a9.59,9.59,0,0,0-2.63,1.38l-1.37.92a8.81,8.81,0,0,1-1.37.78c-.1.05-.24.12-.17.28s-.07.26-.23.26S16,21.5,15.9,21.62Zm4.82-9.31c.23-.26.49-.51.73-.76a2.82,2.82,0,0,0,.33-.36,2.21,2.21,0,0,1,2.43-1,.4.4,0,0,0,.32,0,.78.78,0,0,0-.65-.34h-.6a1.41,1.41,0,0,0-.94.36,8.09,8.09,0,0,0-1.46,1.68C20.79,12,20.65,12.09,20.72,12.31Zm9.61,11.6c0,.07.08,0,.13,0l1.75-.21c.09,0,.23.05.26-.06s-.13-.17-.23-.21l-.23,0a3.64,3.64,0,0,0-1.68.46ZM20.57,12.45l.05,0s0,0,0-.05,0,0-.05,0S20.58,12.44,20.57,12.45Z" transform="translate(15.07 3.89)"/><path class="cls-3" d="M19.45,10.82c0-.12,0-.21-.17-.1a10.2,10.2,0,0,0-1.21.86c-.05.05-.09.14-.18.05a9.84,9.84,0,0,1,4.7-2.85,2.33,2.33,0,0,1,2.59,1.14A4.61,4.61,0,0,1,25.79,12a8.77,8.77,0,0,1,0,1.62,1.35,1.35,0,0,1-1.42,1A1.71,1.71,0,0,1,23,13.11c0-.3-.07-.61-.12-.91-.09-.46-.45-.59-.84-.3a3.38,3.38,0,0,0-.54.59A14.68,14.68,0,0,0,19.12,17c-.2.52-.35,1.07-.52,1.61,0,.07-.08.16,0,.21s.16,0,.23-.07c.86-.59,1.73-1.18,2.64-1.69a5.68,5.68,0,0,1,1.66-.67,1.56,1.56,0,0,1,1.79.94,4.36,4.36,0,0,1,.15,2.4c-.06.33-.1.68-.13,1a2,2,0,0,1-.15.75,1.23,1.23,0,0,0,0,.47c-.12,1.09-.31,2.16-.5,3.24,0,0,0,.06,0,.08s0,0,.07,0l.05,0c-.36.36-.28.86-.42,1.3,0,0,0,.07,0,.08s.05,0,.07,0c1.38-.71,2.72-1.52,4.08-2.28.94-.52,1.89-1,2.88-1.45a3.05,3.05,0,0,1,.74-.24,1.32,1.32,0,0,1,1.52.93,1.28,1.28,0,0,1-.75,1.59c-.43.19-.87.36-1.3.57-1.93.95-3.76,2.1-5.66,3.12A20.77,20.77,0,0,1,23.39,30a2,2,0,0,1-1.66.08,1.42,1.42,0,0,1-.64-.57.22.22,0,0,1,.19-.06c.21,0,.42,0,.3-.35,0-.09.07-.13.15-.17a12.72,12.72,0,0,0,1.33-.67c.66-.42,1.37-.75,2.05-1.15,1-.62,2.08-1.17,3.12-1.75.69-.39,1.41-.71,2.13-1a1.35,1.35,0,0,1,.59-.14c.51,0,1-.05,1.52-.11.26,0,.33-.19.2-.42a.92.92,0,0,0-1-.42,11.78,11.78,0,0,0-2.49,1c-1,.46-1.87,1-2.8,1.54a21.59,21.59,0,0,0-1.9,1.13.54.54,0,0,1-.29.15c-.68.07-.85-.11-.68-.88.35-1.56.57-3.16.81-4.75a18.5,18.5,0,0,0,.32-2.68,1.94,1.94,0,0,0-.5-1.54.86.86,0,0,0-.69-.29,4,4,0,0,0-1.14.26,14,14,0,0,0-3,1.7,1.37,1.37,0,0,0-.22.19.72.72,0,0,1-.76.19.22.22,0,0,1-.19-.17A1.63,1.63,0,0,1,18.16,18c.26-.59.42-1.21.67-1.8A14.65,14.65,0,0,1,20,13.66a10.33,10.33,0,0,1,1.61-2.05.91.91,0,0,1,.16-.11,1.41,1.41,0,0,0,.39-.34,1.47,1.47,0,0,1,1.08-.63,2.85,2.85,0,0,1,1.55.21c.13.08.13,0,.14-.09.08-.22-.09-.36-.22-.49s-.4-.35-.61-.52a1.91,1.91,0,0,0-1.62-.29,7.63,7.63,0,0,0-2.86,1.36c-.06,0-.11.11-.2.11Z" transform="translate(15.07 3.89)"/><path class="cls-2" d="M1.63,6.84a.24.24,0,0,1-.13-.18,1.47,1.47,0,0,1,.41-1.37,1.79,1.79,0,0,0,1-.38,29.14,29.14,0,0,1,4.91-2.1c.07,0,.16-.09.24,0S8,2.88,8,2.9a22,22,0,0,0-2.42.92c-.52.23-1,.5-1.5.75a1.41,1.41,0,0,0,.6-.19A25.79,25.79,0,0,1,7.94,3.2a21.33,21.33,0,0,1,3.56-.69A8.12,8.12,0,0,1,13,2.43c.34,0,.85-.17.91.52.26-.59.37-.72-.16-1.08,0,0,0-.05,0-.08,1-.15,1.9,0,2.23,1.23,0,.06,0,.17.1.17s.09-.11.13-.17,0-.39.24-.5a.7.7,0,0,1,.09.58c-.1,0-.12,0-.15.13a6,6,0,0,1-.93,1.56L13.81,7a22.48,22.48,0,0,0-2.1,3.36,8.41,8.41,0,0,0-.52,1c0,.14,0,.47.16.51a.71.71,0,0,0,.72-.26,4.23,4.23,0,0,1,.71-.86c.06-.06.18-.12.06-.23a.45.45,0,0,1,.24-.21c0,.06,0,.14.1.08s.34-.15.24-.38L15.3,8.28c.06.08,0,.18,0,.29a4.45,4.45,0,0,1,.75-.26.84.84,0,0,1,1.09.87,2.37,2.37,0,0,1-.32.85,10.84,10.84,0,0,0-1.07,2.09,3.86,3.86,0,0,0-.42,1.56c0,.33.19.5.5.47.06,0,.14-.06.18,0a.2.2,0,0,1,0,.22,3.8,3.8,0,0,1-.42.57,14.46,14.46,0,0,1-1.66,1.66c-.11.09-.24.17-.15.36s0,.19-.17.21-.27-.11-.41,0a.8.8,0,0,1-.26-.68.11.11,0,0,1,.14,0,.41.41,0,0,0,.56,0,16.42,16.42,0,0,0,1.94-1.88.46.46,0,0,0,.2-.32.36.36,0,0,0-.39.16c-.36.41-.74.78-1.12,1.16a1.62,1.62,0,0,1-.19.18c-.44.34-.59.33-1-.06A.26.26,0,0,1,13,15.6a2.84,2.84,0,0,1,.3-1.67c.13-.21,0-.35-.17-.48a.78.78,0,0,0,.09-.21,15.9,15.9,0,0,1,.66-2.13c.1-.26.19-.53.29-.82a.3.3,0,0,0-.23.13,27.74,27.74,0,0,1-2.77,2.42A9.39,9.39,0,0,1,8.81,14.4a.29.29,0,0,0-.19.34c0,.18,0,.26-.22.28l-.27.09c-.18-.36-.13-.5.19-.68a17.37,17.37,0,0,0,2.81-1.87c.15-.13.36-.2.48-.41a.45.45,0,0,0-.49.1,15.53,15.53,0,0,1-2,1.37c-.18.1-.35.24-.58.19l-.08,0c-.12,0-.17.26-.3.12s0-.22,0-.33A6.79,6.79,0,0,1,9,10.92a30.72,30.72,0,0,1,2-3.54c.68-1.12,1.43-2.2,2.21-3.25a.33.33,0,0,0,.1-.23l.38-.47A.44.44,0,0,0,13.75,3c-.08-.16-.26-.17-.43-.17-.42,0-.84,0-1.26,0a21.83,21.83,0,0,0-2.41.34c-.81.17-1.61.4-2.4.61s-1.79.66-2.69,1A8.31,8.31,0,0,0,2.32,5.91a.48.48,0,0,0-.26.44.27.27,0,0,1-.21.33h0A.89.89,0,0,0,1.63,6.84Z" transform="translate(15.07 3.89)"/><path class="cls-2" d="M2.51,23.51a.7.7,0,0,1-.1-.65c.17-1.25.43-2.49.7-3.72.63-2.92,1.39-5.81,2.17-8.68A.85.85,0,0,1,5.6,9.9c.15.28.4.17.61.14a.78.78,0,0,1,.58.08.91.91,0,0,1,.45,1.13c-.4,1.52-.78,3-1.2,4.53-.19.7-.36,1.4-.54,2.08s-.31,1.35-.43,2c-.16,1-.36,1.91-.54,2.87a.31.31,0,0,1-.3.29,6.54,6.54,0,0,1-.89.06c-.2,0-.32.09-.26.33,0,.07.15.13.06.19s-.17-.05-.23-.11S2.66,23.34,2.51,23.51Z" transform="translate(15.07 3.89)"/><path class="cls-3" d="M1.63,6.84a.94.94,0,0,1,.23-.16.27.27,0,0,0,.21-.32h0a.46.46,0,0,1,.26-.44A8.4,8.4,0,0,1,4.6,4.75c.9-.31,1.76-.72,2.69-1s1.6-.44,2.41-.62a19.24,19.24,0,0,1,2.4-.33c.42,0,.84,0,1.26,0,.17,0,.35,0,.43.17a.42.42,0,0,1-.12.45l-.37.47A22,22,0,0,0,4.62,6.63c-.36.21-.69.48-1,.71a1.3,1.3,0,0,1-1.82-.27A1,1,0,0,1,1.63,6.84Z" transform="translate(15.07 3.89)"/><path class="cls-3" d="M13.2,17.17c.13-.11.26,0,.41,0s.23-.06.16-.21,0-.26.15-.36a14.46,14.46,0,0,0,1.66-1.66,4.73,4.73,0,0,0,.43-.57.22.22,0,0,0,0-.22c0-.08-.11,0-.18,0-.31,0-.48-.15-.5-.47a4,4,0,0,1,.42-1.56A11.22,11.22,0,0,1,16.85,10a2.21,2.21,0,0,0,.32-.83.84.84,0,0,0-1.08-.87,5.24,5.24,0,0,0-.76.26c-.05-.11.05-.2,0-.29a1.47,1.47,0,0,1,1.3-.55,1.37,1.37,0,0,1,1.14,1.57,1.25,1.25,0,0,1-.17.49c-.23.42-.52.8-.75,1.22a11.3,11.3,0,0,0-.59,1.45c-.14.35-.2.72-.37,1.06a.14.14,0,0,0,.06.16,5.17,5.17,0,0,0,.6-.64c0,.2-.18.34-.21.52s0,.18.07.23.14,0,.19-.08c.32-.31.64-.61.94-.93s.7-.52.94-.9c.06.1,0,.15,0,.2a24.75,24.75,0,0,0-1.84,4.06,6.52,6.52,0,0,1-.5,1.19,2,2,0,0,1-2,.52A1.73,1.73,0,0,1,13.2,17.17Z" transform="translate(15.07 3.89)"/><path class="cls-3" d="M15.9,21.62c.1-.12.21,0,.32,0s.34,0,.24-.26.07-.23.17-.28A8.71,8.71,0,0,0,18,20.27c.46-.32.92-.62,1.38-.92A9.76,9.76,0,0,1,22,18c.34-.09.4,0,.45.3a2.8,2.8,0,0,1,0,1.08.51.51,0,0,1-.14.26c-1,.64-1.93,1.29-2.9,1.91a4.79,4.79,0,0,1-1.72.78A1.72,1.72,0,0,1,15.9,21.62Z" transform="translate(15.07 3.89)"/><path class="cls-3" d="M2.51,23.51c.15-.17.28-.1.41,0s.12.19.23.12,0-.13-.06-.2c-.07-.23.05-.32.26-.33a6.54,6.54,0,0,0,.89-.06.3.3,0,0,0,.3-.28c.18-1,.38-1.92.54-2.88.11-.69.26-1.36.43-2s.34-1.4.54-2.08c.41-1.51.8-3,1.2-4.53a.93.93,0,0,0-.45-1.14.89.89,0,0,0-.58-.08c-.21,0-.47.15-.61-.14a1.31,1.31,0,0,1,1.56-.3,1.47,1.47,0,0,1,.64,1.53c-.69,2.8-1.47,5.57-2.08,8.38-.26,1.19-.5,2.39-.7,3.59a1.32,1.32,0,0,1-1,1.2,1.37,1.37,0,0,1-1.43-.54A.62.62,0,0,1,2.51,23.51Z" transform="translate(15.07 3.89)"/><path class="cls-3" d="M8.16,15.09A1.52,1.52,0,0,1,8.44,15c.17,0,.26-.1.22-.28a.28.28,0,0,1,.19-.34,10.07,10.07,0,0,0,2.36-1.56A27.58,27.58,0,0,0,14,10.4a.32.32,0,0,1,.22-.13c-.1.29-.18.56-.28.82a14.69,14.69,0,0,0-.66,2.14.72.72,0,0,1-.09.2.62.62,0,0,1-.29.58,15.14,15.14,0,0,1-3,1.82,1.3,1.3,0,0,1-1.71-.68Z" transform="translate(15.07 3.89)"/><path class="cls-3" d="M16.42,2.51c-.2.11-.12.35-.24.5s0,.17-.12.17S16,3.07,16,3c-.32-1.22-1.22-1.38-2.23-1.23a21.76,21.76,0,0,0-4.81.78.93.93,0,0,0-.71.21l-.09,0c-.09-.08-.17,0-.25,0A29.49,29.49,0,0,0,3,4.9a1.79,1.79,0,0,1-1,.38,6.89,6.89,0,0,1,1.41-1A23.78,23.78,0,0,1,14.07,1.17a3.33,3.33,0,0,1,1.09.09A1.75,1.75,0,0,1,16.42,2.51Z" transform="translate(15.07 3.89)"/><path class="cls-3" d="M31.36,18.8a1.29,1.29,0,0,1-.46,1.43c-.78.64-1.6,1.26-2.44,1.82a.93.93,0,0,1-1.09.05A1,1,0,0,1,26.79,21l.1,0,1.36-1.11c.29-.23.55-.52,1-.52a8.56,8.56,0,0,0,1.15-.07c.18,0,.44.05.48-.28,0-.09.12-.1.21-.11Z" transform="translate(15.07 3.89)"/><path class="cls-3" d="M20.81,1.58a1.52,1.52,0,0,1,1-.64,1.39,1.39,0,0,1,1.3.84,1.39,1.39,0,0,1-.28,1.44,17.47,17.47,0,0,1-1.26,1.47,1.41,1.41,0,0,1-1.86.37c-.09,0-.17-.08-.19-.19a.44.44,0,0,0,.32-.54h0A.36.36,0,0,1,20,4a7.68,7.68,0,0,0,.64-.77,1.45,1.45,0,0,1,.6-.47l1.22-.58c.22-.11.22-.23,0-.37s-.22-.19-.36-.22-.41,0-.62,0S21,1.74,20.81,1.58Z" transform="translate(15.07 3.89)"/><path class="cls-3" d="M12.86,10.57c.12.11,0,.16-.06.22a4.58,4.58,0,0,0-.71.87.71.71,0,0,1-.72.26c-.11,0-.2-.37-.16-.51a9.17,9.17,0,0,1,.52-1A22,22,0,0,1,13.83,7l1.62-2.23a5.86,5.86,0,0,0,.93-1.56c0-.07.05-.15.15-.12A3.79,3.79,0,0,1,15.85,5c-.66,1-1.33,1.91-2,2.86-.76,1.11-1.43,2.28-2.08,3.45,0,.05-.08.11,0,.15s.1,0,.14-.05Z" transform="translate(15.07 3.89)"/><path class="cls-2" d="M31.36,18.8l-.31,0c-.09,0-.2,0-.21.11,0,.33-.3.26-.48.28a11.09,11.09,0,0,1-1.15.07,1.86,1.86,0,0,0-1,.52l-1.36,1.11-.1,0a2.39,2.39,0,0,1,.62-1.39c.14,0,.3,0,.42-.06l.9-.66a1.67,1.67,0,0,1,1.55-.4,2.68,2.68,0,0,0,1,.13A.18.18,0,0,1,31.36,18.8Z" transform="translate(15.07 3.89)"/><path class="cls-3" d="M31.29,18.61a3.15,3.15,0,0,1-1-.13,1.66,1.66,0,0,0-1.55.39c-.3.21-.6.44-.9.66-.12.09-.28,0-.42.06a15.12,15.12,0,0,1,2-1.56,1.26,1.26,0,0,1,1.75.37A.7.7,0,0,1,31.29,18.61Z" transform="translate(15.07 3.89)"/><path class="cls-2" d="M20.81,1.58c.21.16.41,0,.62,0s.41-.17.62,0c0,.06-.07.07-.11.09a3.36,3.36,0,0,0-1.72,1.41,4.73,4.73,0,0,1-.9.66c-.08.06-.1,0-.1-.1a.65.65,0,0,1,.21-.48Z" transform="translate(15.07 3.89)"/><path class="cls-2" d="M22.41,1.76c.22.15.22.26,0,.38l-1.22.58a1.45,1.45,0,0,0-.6.47A6.6,6.6,0,0,1,20,4a.37.37,0,0,0-.07.38.45.45,0,0,1-.3.55h0c-.33-.26-.32-.37-.06-.68s.73-.91,1.08-1.38a.76.76,0,0,1,.3-.26c.42-.2.84-.41,1.27-.6C22.26,1.92,22.31,1.83,22.41,1.76Z" transform="translate(15.07 3.89)"/><path class="cls-3" d="M13.44,10.05c.1.24-.15.26-.24.38s-.09,0-.1-.07Z" transform="translate(15.07 3.89)"/><path class="cls-1" d="M20.72,12.31c-.07-.22.07-.31.16-.43a8.64,8.64,0,0,1,1.46-1.68,1.52,1.52,0,0,1,.94-.36h.6a.78.78,0,0,1,.65.35.4.4,0,0,1-.32,0,2.21,2.21,0,0,0-2.43,1,2.2,2.2,0,0,1-.33.35C21.21,11.8,21,12,20.72,12.31Z" transform="translate(15.07 3.89)"/><path class="cls-1" d="M30.33,23.91A3.61,3.61,0,0,1,32,23.45l.23,0c.1,0,.26.08.23.21s-.16.05-.26.06L30.45,24S30.35,24,30.33,23.91Z" transform="translate(15.07 3.89)"/><path class="cls-1" d="M20.57,12.45s0,0,0,0,0,0,.05,0a0,0,0,0,1,0,.05A.06.06,0,0,1,20.57,12.45Z" transform="translate(15.07 3.89)"/><path class="cls-3" d="M19.45,10.82l0,0h0Z" transform="translate(15.07 3.89)"/><path class="cls-1" d="M24.33,25.28s0,0-.07,0,0-.05,0-.09Z" transform="translate(15.07 3.89)"/><path class="cls-1" d="M24,26.65s-.05,0-.07,0a.09.09,0,0,1,0-.09Z" transform="translate(15.07 3.89)"/><path class="cls-1" d="M8.91,2.56a21.76,21.76,0,0,1,4.81-.78s0,.07,0,.08c.52.36.42.5.16,1.08-.07-.68-.57-.49-.92-.52a10.49,10.49,0,0,0-1.48.08,20.75,20.75,0,0,0-3.56.7A27.37,27.37,0,0,0,4.65,4.37a1.38,1.38,0,0,1-.59.2c.5-.26,1-.52,1.49-.75A21.54,21.54,0,0,1,8,2.89c.06,0,.12,0,.14-.09l.09,0A1.06,1.06,0,0,0,8.91,2.56Z" transform="translate(15.07 3.89)"/><path class="cls-2" d="M8.91,2.56a1.06,1.06,0,0,1-.71.21A1,1,0,0,1,8.91,2.56Z" transform="translate(15.07 3.89)"/></svg>